<mxfile host="app.diagrams.net" modified="2023-11-02T17:16:22.876Z" agent="Mozilla/5.0 (X11; Linux x86_64) AppleWebKit/537.36 (KHTML, like Gecko) Chrome/119.0.0.0 Safari/537.36" etag="6NbNLRxY0DMSt8OYQJZl" version="22.0.8" type="device">
  <diagram name="Page-1" id="GF6Ig5fyT9nL08g-VgnM">
    <mxGraphModel dx="1951" dy="1149" grid="1" gridSize="10" guides="1" tooltips="1" connect="1" arrows="1" fold="1" page="1" pageScale="1" pageWidth="2339" pageHeight="3300" math="0" shadow="0">
      <root>
        <mxCell id="0" />
        <mxCell id="1" parent="0" />
        <mxCell id="3EtvzqERgFBNUbqquFPB-1" value="Django" style="rounded=1;whiteSpace=wrap;html=1;" parent="1" vertex="1">
          <mxGeometry x="1350" y="480" width="120" height="60" as="geometry" />
        </mxCell>
        <mxCell id="3EtvzqERgFBNUbqquFPB-19" style="edgeStyle=orthogonalEdgeStyle;rounded=0;orthogonalLoop=1;jettySize=auto;html=1;exitX=0.5;exitY=1;exitDx=0;exitDy=0;entryX=0.5;entryY=0;entryDx=0;entryDy=0;fillColor=#d5e8d4;strokeColor=#82b366;" parent="1" source="3EtvzqERgFBNUbqquFPB-2" target="3EtvzqERgFBNUbqquFPB-1" edge="1">
          <mxGeometry relative="1" as="geometry" />
        </mxCell>
        <mxCell id="3EtvzqERgFBNUbqquFPB-2" value="Front" style="rounded=1;whiteSpace=wrap;html=1;" parent="1" vertex="1">
          <mxGeometry x="1350" y="390" width="120" height="60" as="geometry" />
        </mxCell>
        <mxCell id="3EtvzqERgFBNUbqquFPB-21" style="edgeStyle=orthogonalEdgeStyle;rounded=0;orthogonalLoop=1;jettySize=auto;html=1;exitX=0.5;exitY=1;exitDx=0;exitDy=0;fillColor=#d5e8d4;strokeColor=#82b366;" parent="1" source="3EtvzqERgFBNUbqquFPB-6" target="3EtvzqERgFBNUbqquFPB-7" edge="1">
          <mxGeometry relative="1" as="geometry" />
        </mxCell>
        <mxCell id="3EtvzqERgFBNUbqquFPB-6" value="postgres listener" style="rounded=1;whiteSpace=wrap;html=1;" parent="1" vertex="1">
          <mxGeometry x="1350" y="600" width="120" height="60" as="geometry" />
        </mxCell>
        <mxCell id="WRxX1C8xl9C6d3PEoGMl-17" style="edgeStyle=orthogonalEdgeStyle;rounded=0;orthogonalLoop=1;jettySize=auto;html=1;entryX=1;entryY=0.25;entryDx=0;entryDy=0;fillColor=#d5e8d4;strokeColor=#82b366;" edge="1" parent="1" source="3EtvzqERgFBNUbqquFPB-7" target="WRxX1C8xl9C6d3PEoGMl-1">
          <mxGeometry relative="1" as="geometry" />
        </mxCell>
        <mxCell id="3EtvzqERgFBNUbqquFPB-7" value="rabbitmq publisher" style="rounded=1;whiteSpace=wrap;html=1;" parent="1" vertex="1">
          <mxGeometry x="1350" y="690" width="120" height="60" as="geometry" />
        </mxCell>
        <mxCell id="WRxX1C8xl9C6d3PEoGMl-19" style="edgeStyle=orthogonalEdgeStyle;rounded=0;orthogonalLoop=1;jettySize=auto;html=1;exitX=1;exitY=0;exitDx=0;exitDy=27.5;exitPerimeter=0;entryX=0;entryY=0.75;entryDx=0;entryDy=0;fillColor=#d5e8d4;strokeColor=#82b366;" edge="1" parent="1" source="3EtvzqERgFBNUbqquFPB-10" target="3EtvzqERgFBNUbqquFPB-6">
          <mxGeometry relative="1" as="geometry" />
        </mxCell>
        <mxCell id="3EtvzqERgFBNUbqquFPB-10" value="postgres" style="shape=cylinder3;whiteSpace=wrap;html=1;boundedLbl=1;backgroundOutline=1;size=15;" parent="1" vertex="1">
          <mxGeometry x="1090" y="800" width="60" height="80" as="geometry" />
        </mxCell>
        <mxCell id="3EtvzqERgFBNUbqquFPB-11" value="rabbitmq listener" style="rounded=1;whiteSpace=wrap;html=1;" parent="1" vertex="1">
          <mxGeometry x="1350" y="880" width="120" height="60" as="geometry" />
        </mxCell>
        <mxCell id="3EtvzqERgFBNUbqquFPB-12" value="Django" style="rounded=1;whiteSpace=wrap;html=1;" parent="1" vertex="1">
          <mxGeometry x="410" y="480" width="120" height="60" as="geometry" />
        </mxCell>
        <mxCell id="3EtvzqERgFBNUbqquFPB-25" style="edgeStyle=orthogonalEdgeStyle;rounded=0;orthogonalLoop=1;jettySize=auto;html=1;exitX=0.5;exitY=1;exitDx=0;exitDy=0;fillColor=#f8cecc;strokeColor=#b85450;" parent="1" source="3EtvzqERgFBNUbqquFPB-13" target="3EtvzqERgFBNUbqquFPB-12" edge="1">
          <mxGeometry relative="1" as="geometry" />
        </mxCell>
        <mxCell id="3EtvzqERgFBNUbqquFPB-13" value="Front" style="rounded=1;whiteSpace=wrap;html=1;" parent="1" vertex="1">
          <mxGeometry x="410" y="390" width="120" height="60" as="geometry" />
        </mxCell>
        <mxCell id="3EtvzqERgFBNUbqquFPB-27" style="edgeStyle=orthogonalEdgeStyle;rounded=0;orthogonalLoop=1;jettySize=auto;html=1;exitX=0.5;exitY=1;exitDx=0;exitDy=0;entryX=0.5;entryY=0;entryDx=0;entryDy=0;fillColor=#f8cecc;strokeColor=#b85450;" parent="1" source="3EtvzqERgFBNUbqquFPB-15" target="3EtvzqERgFBNUbqquFPB-16" edge="1">
          <mxGeometry relative="1" as="geometry" />
        </mxCell>
        <mxCell id="3EtvzqERgFBNUbqquFPB-15" value="postgres listener" style="rounded=1;whiteSpace=wrap;html=1;" parent="1" vertex="1">
          <mxGeometry x="410" y="600" width="120" height="60" as="geometry" />
        </mxCell>
        <mxCell id="WRxX1C8xl9C6d3PEoGMl-36" style="edgeStyle=orthogonalEdgeStyle;rounded=0;orthogonalLoop=1;jettySize=auto;html=1;entryX=0;entryY=0.5;entryDx=0;entryDy=0;fillColor=#f8cecc;strokeColor=#b85450;" edge="1" parent="1" source="3EtvzqERgFBNUbqquFPB-16" target="WRxX1C8xl9C6d3PEoGMl-4">
          <mxGeometry relative="1" as="geometry">
            <mxPoint x="350" y="1020" as="targetPoint" />
            <Array as="points">
              <mxPoint x="370" y="720" />
              <mxPoint x="370" y="990" />
            </Array>
          </mxGeometry>
        </mxCell>
        <mxCell id="3EtvzqERgFBNUbqquFPB-16" value="rabbitmq publisher" style="rounded=1;whiteSpace=wrap;html=1;" parent="1" vertex="1">
          <mxGeometry x="410" y="690" width="120" height="60" as="geometry" />
        </mxCell>
        <mxCell id="WRxX1C8xl9C6d3PEoGMl-35" style="edgeStyle=orthogonalEdgeStyle;rounded=0;orthogonalLoop=1;jettySize=auto;html=1;exitX=1;exitY=0;exitDx=0;exitDy=15;exitPerimeter=0;entryX=0;entryY=0.5;entryDx=0;entryDy=0;fillColor=#f8cecc;strokeColor=#b85450;" edge="1" parent="1" source="3EtvzqERgFBNUbqquFPB-17" target="3EtvzqERgFBNUbqquFPB-15">
          <mxGeometry relative="1" as="geometry" />
        </mxCell>
        <mxCell id="3EtvzqERgFBNUbqquFPB-17" value="postgres" style="shape=cylinder3;whiteSpace=wrap;html=1;boundedLbl=1;backgroundOutline=1;size=15;" parent="1" vertex="1">
          <mxGeometry x="150" y="800" width="60" height="80" as="geometry" />
        </mxCell>
        <mxCell id="3EtvzqERgFBNUbqquFPB-24" style="edgeStyle=orthogonalEdgeStyle;rounded=0;orthogonalLoop=1;jettySize=auto;html=1;exitX=0;exitY=0.5;exitDx=0;exitDy=0;fillColor=#d5e8d4;strokeColor=#82b366;" parent="1" source="3EtvzqERgFBNUbqquFPB-18" target="3EtvzqERgFBNUbqquFPB-17" edge="1">
          <mxGeometry relative="1" as="geometry">
            <Array as="points">
              <mxPoint x="270" y="910" />
              <mxPoint x="270" y="840" />
            </Array>
          </mxGeometry>
        </mxCell>
        <mxCell id="3EtvzqERgFBNUbqquFPB-18" value="rabbitmq listener" style="rounded=1;whiteSpace=wrap;html=1;" parent="1" vertex="1">
          <mxGeometry x="410" y="880" width="120" height="60" as="geometry" />
        </mxCell>
        <mxCell id="3EtvzqERgFBNUbqquFPB-22" style="edgeStyle=orthogonalEdgeStyle;rounded=0;orthogonalLoop=1;jettySize=auto;html=1;exitX=0;exitY=0.5;exitDx=0;exitDy=0;entryX=0.5;entryY=0;entryDx=0;entryDy=0;entryPerimeter=0;fillColor=#d5e8d4;strokeColor=#82b366;" parent="1" source="3EtvzqERgFBNUbqquFPB-1" target="3EtvzqERgFBNUbqquFPB-10" edge="1">
          <mxGeometry relative="1" as="geometry" />
        </mxCell>
        <mxCell id="3EtvzqERgFBNUbqquFPB-28" style="edgeStyle=orthogonalEdgeStyle;rounded=0;orthogonalLoop=1;jettySize=auto;html=1;entryX=0.5;entryY=0;entryDx=0;entryDy=0;entryPerimeter=0;fillColor=#f8cecc;strokeColor=#b85450;" parent="1" source="3EtvzqERgFBNUbqquFPB-12" target="3EtvzqERgFBNUbqquFPB-17" edge="1">
          <mxGeometry relative="1" as="geometry" />
        </mxCell>
        <mxCell id="WRxX1C8xl9C6d3PEoGMl-5" style="edgeStyle=orthogonalEdgeStyle;rounded=0;orthogonalLoop=1;jettySize=auto;html=1;fillColor=#d5e8d4;strokeColor=#82b366;" edge="1" parent="1" source="WRxX1C8xl9C6d3PEoGMl-1" target="WRxX1C8xl9C6d3PEoGMl-6">
          <mxGeometry relative="1" as="geometry">
            <mxPoint x="1160" y="1010" as="targetPoint" />
          </mxGeometry>
        </mxCell>
        <mxCell id="WRxX1C8xl9C6d3PEoGMl-1" value="rabbitmq lserv" style="rounded=1;whiteSpace=wrap;html=1;" vertex="1" parent="1">
          <mxGeometry x="1370" y="980" width="120" height="60" as="geometry" />
        </mxCell>
        <mxCell id="WRxX1C8xl9C6d3PEoGMl-9" style="edgeStyle=orthogonalEdgeStyle;rounded=0;orthogonalLoop=1;jettySize=auto;html=1;exitX=0.25;exitY=0;exitDx=0;exitDy=0;entryX=0.75;entryY=1;entryDx=0;entryDy=0;fillColor=#d5e8d4;strokeColor=#82b366;" edge="1" parent="1" source="WRxX1C8xl9C6d3PEoGMl-4" target="3EtvzqERgFBNUbqquFPB-18">
          <mxGeometry relative="1" as="geometry" />
        </mxCell>
        <mxCell id="WRxX1C8xl9C6d3PEoGMl-12" style="edgeStyle=orthogonalEdgeStyle;rounded=0;orthogonalLoop=1;jettySize=auto;html=1;exitX=1;exitY=0.25;exitDx=0;exitDy=0;entryX=0;entryY=0;entryDx=0;entryDy=0;fillColor=#f8cecc;strokeColor=#b85450;" edge="1" parent="1" source="WRxX1C8xl9C6d3PEoGMl-4" target="WRxX1C8xl9C6d3PEoGMl-6">
          <mxGeometry relative="1" as="geometry" />
        </mxCell>
        <mxCell id="WRxX1C8xl9C6d3PEoGMl-4" value="rabbitmq serv" style="rounded=1;whiteSpace=wrap;html=1;" vertex="1" parent="1">
          <mxGeometry x="460" y="960" width="120" height="60" as="geometry" />
        </mxCell>
        <mxCell id="WRxX1C8xl9C6d3PEoGMl-7" style="edgeStyle=orthogonalEdgeStyle;rounded=0;orthogonalLoop=1;jettySize=auto;html=1;fillColor=#d5e8d4;strokeColor=#82b366;" edge="1" parent="1" source="WRxX1C8xl9C6d3PEoGMl-6" target="WRxX1C8xl9C6d3PEoGMl-4">
          <mxGeometry relative="1" as="geometry" />
        </mxCell>
        <mxCell id="WRxX1C8xl9C6d3PEoGMl-22" style="edgeStyle=orthogonalEdgeStyle;rounded=0;orthogonalLoop=1;jettySize=auto;html=1;exitX=1;exitY=0;exitDx=0;exitDy=0;entryX=0;entryY=0.25;entryDx=0;entryDy=0;fillColor=#f8cecc;strokeColor=#b85450;" edge="1" parent="1" source="WRxX1C8xl9C6d3PEoGMl-6" target="WRxX1C8xl9C6d3PEoGMl-1">
          <mxGeometry relative="1" as="geometry" />
        </mxCell>
        <mxCell id="WRxX1C8xl9C6d3PEoGMl-6" value="handler" style="ellipse;whiteSpace=wrap;html=1;aspect=fixed;" vertex="1" parent="1">
          <mxGeometry x="820" y="960" width="80" height="80" as="geometry" />
        </mxCell>
        <mxCell id="WRxX1C8xl9C6d3PEoGMl-15" style="edgeStyle=orthogonalEdgeStyle;rounded=0;orthogonalLoop=1;jettySize=auto;html=1;exitX=0;exitY=0.5;exitDx=0;exitDy=0;entryX=1;entryY=0;entryDx=0;entryDy=52.5;entryPerimeter=0;fillColor=#f8cecc;strokeColor=#b85450;" edge="1" parent="1" source="3EtvzqERgFBNUbqquFPB-11" target="3EtvzqERgFBNUbqquFPB-10">
          <mxGeometry relative="1" as="geometry" />
        </mxCell>
        <mxCell id="WRxX1C8xl9C6d3PEoGMl-21" value="" style="rounded=0;whiteSpace=wrap;html=1;fillColor=none;" vertex="1" parent="1">
          <mxGeometry x="1290" y="570" width="270" height="220" as="geometry" />
        </mxCell>
        <mxCell id="WRxX1C8xl9C6d3PEoGMl-24" style="edgeStyle=orthogonalEdgeStyle;rounded=0;orthogonalLoop=1;jettySize=auto;html=1;entryX=0.682;entryY=1.04;entryDx=0;entryDy=0;entryPerimeter=0;fillColor=#f8cecc;strokeColor=#b85450;" edge="1" parent="1" source="WRxX1C8xl9C6d3PEoGMl-1" target="3EtvzqERgFBNUbqquFPB-11">
          <mxGeometry relative="1" as="geometry" />
        </mxCell>
        <mxCell id="WRxX1C8xl9C6d3PEoGMl-30" style="edgeStyle=orthogonalEdgeStyle;rounded=0;orthogonalLoop=1;jettySize=auto;html=1;exitX=1;exitY=0.5;exitDx=0;exitDy=0;entryX=0;entryY=0.25;entryDx=0;entryDy=0;" edge="1" parent="1">
          <mxGeometry relative="1" as="geometry">
            <mxPoint x="940" y="495" as="sourcePoint" />
            <mxPoint x="1350" y="480" as="targetPoint" />
            <Array as="points">
              <mxPoint x="1145" y="495" />
              <mxPoint x="1145" y="480" />
            </Array>
          </mxGeometry>
        </mxCell>
        <mxCell id="WRxX1C8xl9C6d3PEoGMl-31" style="edgeStyle=orthogonalEdgeStyle;rounded=0;orthogonalLoop=1;jettySize=auto;html=1;exitX=0;exitY=0.5;exitDx=0;exitDy=0;" edge="1" parent="1" source="WRxX1C8xl9C6d3PEoGMl-27">
          <mxGeometry relative="1" as="geometry">
            <mxPoint x="540" y="509.57142857142867" as="targetPoint" />
          </mxGeometry>
        </mxCell>
        <mxCell id="WRxX1C8xl9C6d3PEoGMl-27" value="Load balancing" style="ellipse;whiteSpace=wrap;html=1;" vertex="1" parent="1">
          <mxGeometry x="820" y="470" width="120" height="80" as="geometry" />
        </mxCell>
        <mxCell id="WRxX1C8xl9C6d3PEoGMl-29" style="edgeStyle=orthogonalEdgeStyle;rounded=0;orthogonalLoop=1;jettySize=auto;html=1;" edge="1" parent="1" source="WRxX1C8xl9C6d3PEoGMl-28" target="WRxX1C8xl9C6d3PEoGMl-27">
          <mxGeometry relative="1" as="geometry" />
        </mxCell>
        <mxCell id="WRxX1C8xl9C6d3PEoGMl-32" value="Text" style="edgeLabel;html=1;align=center;verticalAlign=middle;resizable=0;points=[];" vertex="1" connectable="0" parent="WRxX1C8xl9C6d3PEoGMl-29">
          <mxGeometry x="-0.4471" y="5" relative="1" as="geometry">
            <mxPoint as="offset" />
          </mxGeometry>
        </mxCell>
        <mxCell id="WRxX1C8xl9C6d3PEoGMl-28" value="Front" style="rounded=1;whiteSpace=wrap;html=1;" vertex="1" parent="1">
          <mxGeometry x="840" y="230" width="120" height="60" as="geometry" />
        </mxCell>
        <mxCell id="WRxX1C8xl9C6d3PEoGMl-37" value="" style="rounded=0;whiteSpace=wrap;html=1;fillColor=none;" vertex="1" parent="1">
          <mxGeometry x="340" y="570" width="270" height="220" as="geometry" />
        </mxCell>
      </root>
    </mxGraphModel>
  </diagram>
</mxfile>
